<?xml version="1.0" encoding="UTF-8" standalone="no"?>
<svg
   width="60"
   zoomAndPan="magnify"
   viewBox="0 0 45 44.999999"
   height="60"
   preserveAspectRatio="xMidYMid meet"
   version="1.0"
   id="svg58"
   sodipodi:docname="cl.svg"
   inkscape:version="1.4 (e7c3feb1, 2024-10-09)"
   xmlns:inkscape="http://www.inkscape.org/namespaces/inkscape"
   xmlns:sodipodi="http://sodipodi.sourceforge.net/DTD/sodipodi-0.dtd"
   xmlns="http://www.w3.org/2000/svg"
   xmlns:svg="http://www.w3.org/2000/svg">
  <sodipodi:namedview
     id="namedview58"
     pagecolor="#ffffff"
     bordercolor="#000000"
     borderopacity="0.25"
     inkscape:showpageshadow="2"
     inkscape:pageopacity="0.0"
     inkscape:pagecheckerboard="0"
     inkscape:deskcolor="#d1d1d1"
     inkscape:zoom="15.394184"
     inkscape:cx="30.66093"
     inkscape:cy="30.173733"
     inkscape:window-width="1728"
     inkscape:window-height="988"
     inkscape:window-x="0"
     inkscape:window-y="38"
     inkscape:window-maximized="1"
     inkscape:current-layer="svg58" />
  <defs
     id="defs3">
    <clipPath
       id="8ec1221cea">
      <path
         d="M 21 33 L 45 33 L 45 41.398438 L 21 41.398438 Z M 21 33 "
         clip-rule="nonzero"
         id="path1" />
    </clipPath>
    <clipPath
       id="5bc2bf1638">
      <path
         d="M 0.304688 30 L 24 30 L 24 41 L 0.304688 41 Z M 0.304688 30 "
         clip-rule="nonzero"
         id="path2" />
    </clipPath>
    <clipPath
       id="6e072dc342">
      <path
         d="M 39 3.898438 L 41 3.898438 L 41 5 L 39 5 Z M 39 3.898438 "
         clip-rule="nonzero"
         id="path3" />
    </clipPath>
  </defs>
  <path
     d="M 22.5625 26.089844 C 22.394531 26.042969 22.222656 26.09375 22.054688 26.121094 C 21.722656 26.1875 21.398438 26.289062 21.074219 26.375 C 20.726562 26.472656 20.429688 26.664062 20.125 26.851562 C 19.890625 27.023438 19.71875 27.238281 19.558594 27.472656 C 19.375 27.78125 19.269531 28.125 19.175781 28.46875 C 19.050781 28.898438 18.988281 29.339844 18.914062 29.78125 C 18.851562 30.234375 18.777344 30.6875 18.703125 31.136719 C 18.65625 31.527344 18.574219 31.914062 18.472656 32.292969 C 18.390625 32.589844 18.289062 32.882812 18.203125 33.179688 C 18.128906 33.339844 18.0625 33.503906 17.992188 33.660156 C 17.960938 33.753906 17.914062 33.847656 17.875 33.9375 C 17.972656 33.699219 17.839844 33.605469 17.589844 33.535156 C 17.578125 33.566406 17.71875 33.46875 17.757812 33.449219 C 17.960938 33.265625 18.164062 33.074219 18.347656 32.871094 C 18.613281 32.574219 18.917969 32.3125 19.226562 32.066406 C 19.507812 31.835938 19.8125 31.628906 20.109375 31.417969 C 20.441406 31.195312 20.773438 30.96875 21.078125 30.710938 C 21.480469 30.359375 21.808594 29.941406 22.128906 29.515625 C 22.398438 29.097656 22.601562 28.648438 22.785156 28.1875 C 22.941406 27.808594 23.082031 27.417969 23.21875 27.03125 C 23.390625 26.859375 23.355469 26.679688 23.398438 26.496094 C 23.425781 26.390625 23.507812 26.371094 23.550781 26.472656 C 23.636719 26.679688 23.703125 26.898438 23.789062 27.109375 C 23.804688 27.601562 23.664062 28.050781 23.445312 28.488281 C 23.199219 28.964844 22.964844 29.453125 22.648438 29.886719 C 22.324219 30.363281 21.945312 30.800781 21.542969 31.210938 C 21.234375 31.527344 20.929688 31.847656 20.550781 32.082031 C 20.257812 32.265625 19.960938 32.445312 19.683594 32.648438 C 19.398438 32.886719 19.121094 33.128906 18.871094 33.398438 C 18.621094 33.609375 18.386719 33.847656 18.082031 33.984375 C 17.945312 34.0625 17.808594 34.15625 17.65625 34.183594 C 17.308594 34.097656 17.230469 33.960938 17.347656 33.65625 C 17.386719 33.585938 17.433594 33.503906 17.480469 33.425781 C 17.539062 33.273438 17.613281 33.121094 17.660156 32.960938 C 17.796875 32.703125 17.90625 32.4375 17.996094 32.15625 C 18.101562 31.792969 18.203125 31.429688 18.277344 31.058594 C 18.367188 30.613281 18.441406 30.164062 18.515625 29.714844 C 18.59375 29.261719 18.6875 28.8125 18.777344 28.363281 C 18.886719 27.980469 18.980469 27.59375 19.164062 27.242188 C 19.351562 26.933594 19.53125 26.632812 19.847656 26.449219 C 20.175781 26.226562 20.511719 26.03125 20.867188 25.855469 C 21.191406 25.695312 21.523438 25.546875 21.871094 25.433594 C 22.085938 25.363281 22.300781 25.296875 22.519531 25.234375 C 23.101562 25.0625 23.148438 26.25 22.5625 26.089844 Z M 22.5625 26.089844 "
     fill-opacity="1"
     fill-rule="nonzero"
     id="path4"
     style="fill:#909497;fill-opacity:1" />
  <path
     d="M 23.644531 25.671875 C 23.78125 25.679688 23.917969 25.726562 24.050781 25.769531 C 24.304688 25.835938 24.558594 25.886719 24.820312 25.929688 C 25.128906 26.011719 25.453125 26.027344 25.773438 26.039062 C 26.0625 26.046875 26.339844 26.019531 26.621094 25.96875 C 26.953125 25.910156 27.253906 25.757812 27.554688 25.617188 C 27.839844 25.46875 28.089844 25.273438 28.328125 25.058594 C 28.464844 24.945312 28.539062 24.789062 28.621094 24.648438 C 28.679688 24.589844 28.648438 24.511719 28.660156 24.449219 C 28.65625 24.421875 28.648438 24.40625 28.640625 24.378906 C 28.632812 24.359375 28.65625 24.421875 28.664062 24.441406 C 28.691406 24.457031 28.726562 24.457031 28.757812 24.46875 C 28.558594 24.457031 28.359375 24.515625 28.164062 24.558594 C 27.816406 24.652344 27.460938 24.734375 27.113281 24.828125 C 26.769531 24.910156 26.425781 24.992188 26.082031 25.066406 C 25.726562 25.195312 25.375 25.238281 25.019531 25.214844 C 24.644531 25.300781 24.265625 25.347656 23.882812 25.390625 C 23.777344 25.40625 23.757812 25.253906 23.867188 25.242188 C 24.242188 25.195312 24.617188 25.152344 24.984375 25.0625 C 25.285156 24.886719 25.621094 24.757812 25.992188 24.695312 C 26.332031 24.609375 26.679688 24.542969 27.023438 24.46875 C 27.371094 24.390625 27.710938 24.289062 28.039062 24.15625 C 28.253906 24.074219 28.472656 23.992188 28.691406 23.917969 C 28.863281 23.894531 28.972656 23.855469 29.121094 23.980469 C 29.167969 24.0625 29.253906 24.132812 29.25 24.234375 C 29.257812 24.320312 29.285156 24.402344 29.273438 24.496094 C 29.242188 24.636719 29.210938 24.78125 29.148438 24.914062 C 29 25.109375 28.863281 25.316406 28.640625 25.441406 C 28.355469 25.644531 28.0625 25.839844 27.742188 25.984375 C 27.410156 26.164062 27.078125 26.34375 26.710938 26.445312 C 26.390625 26.484375 26.074219 26.503906 25.753906 26.464844 C 25.414062 26.4375 25.078125 26.410156 24.738281 26.371094 C 24.476562 26.3125 24.214844 26.257812 23.953125 26.210938 C 23.792969 26.175781 23.628906 26.15625 23.492188 26.058594 C 23.257812 25.882812 23.351562 25.660156 23.644531 25.671875 Z M 23.644531 25.671875 "
     fill-opacity="1"
     fill-rule="nonzero"
     id="path5"
     style="fill:#909497;fill-opacity:1" />
  <path
     d="M 29.894531 24.046875 C 30.210938 24.082031 30.476562 24 30.796875 24.007812 C 31.339844 24.070312 31.878906 24.136719 32.417969 24.210938 C 33.054688 24.347656 33.652344 24.605469 34.265625 24.8125 C 34.8125 25.054688 35.371094 25.269531 35.910156 25.523438 C 36.265625 25.648438 36.585938 25.847656 36.917969 26.015625 C 37.121094 26.078125 37.273438 26.21875 37.433594 26.351562 C 37.652344 26.558594 37.714844 26.742188 37.679688 27.050781 C 37.503906 27.394531 37.347656 27.34375 37 27.234375 C 36.894531 27.199219 36.933594 27.214844 36.90625 27.109375 C 36.890625 27.046875 36.796875 26.558594 36.691406 26.820312 C 36.695312 26.859375 36.757812 27.238281 36.726562 27.046875 C 36.628906 26.945312 36.539062 26.835938 36.433594 26.742188 C 36.171875 26.515625 35.890625 26.308594 35.613281 26.101562 C 35.105469 25.816406 34.597656 25.539062 34.050781 25.332031 C 33.496094 25.058594 32.914062 24.851562 32.3125 24.703125 C 31.808594 24.550781 31.304688 24.492188 30.777344 24.519531 C 30.472656 24.507812 30.214844 24.402344 29.917969 24.472656 C 29.625 24.539062 29.597656 24.011719 29.894531 24.046875 Z M 29.894531 24.046875 "
     fill-opacity="1"
     fill-rule="nonzero"
     id="path6"
     style="fill:#909497;fill-opacity:1" />
  <path
     d="M 23.871094 24.28125 C 23.941406 24.15625 24.042969 24.054688 24.121094 23.933594 C 24.214844 23.800781 24.273438 23.652344 24.332031 23.503906 C 24.378906 23.363281 24.414062 23.21875 24.449219 23.074219 C 24.484375 22.921875 24.46875 22.769531 24.453125 22.617188 C 24.410156 22.410156 24.328125 22.214844 24.257812 22.015625 C 24.140625 21.761719 24.039062 21.503906 23.894531 21.261719 C 23.765625 20.988281 23.566406 20.761719 23.378906 20.53125 C 23.179688 20.292969 22.921875 20.109375 22.695312 19.902344 C 22.484375 19.722656 22.269531 19.546875 22.046875 19.386719 C 21.902344 19.277344 21.742188 19.1875 21.59375 19.089844 C 21.507812 19.050781 21.433594 18.996094 21.355469 18.949219 C 21.3125 18.941406 21.273438 18.929688 21.234375 18.921875 C 21.210938 18.816406 21.183594 18.863281 21.105469 18.84375 C 21.03125 18.894531 20.976562 18.964844 20.925781 19.035156 C 20.847656 19.167969 20.792969 19.308594 20.734375 19.449219 C 20.664062 19.625 20.640625 19.816406 20.617188 20.003906 C 20.601562 20.230469 20.59375 20.457031 20.601562 20.683594 C 20.613281 20.964844 20.660156 21.246094 20.714844 21.523438 C 20.78125 21.820312 20.878906 22.113281 20.972656 22.40625 C 21.089844 22.691406 21.207031 22.972656 21.351562 23.246094 C 21.507812 23.492188 21.636719 23.75 21.8125 23.980469 C 22.003906 24.230469 22.226562 24.46875 22.472656 24.664062 C 22.648438 24.796875 22.769531 24.964844 22.960938 25.074219 C 23.007812 25.101562 22.972656 25.167969 22.925781 25.140625 C 22.730469 25.03125 22.503906 24.980469 22.339844 24.820312 C 22.085938 24.601562 21.824219 24.390625 21.613281 24.125 C 21.445312 23.875 21.277344 23.621094 21.160156 23.34375 C 21.023438 23.058594 20.882812 22.769531 20.789062 22.46875 C 20.679688 22.171875 20.605469 21.867188 20.550781 21.558594 C 20.484375 21.269531 20.425781 20.984375 20.414062 20.6875 C 20.410156 20.453125 20.40625 20.21875 20.445312 19.980469 C 20.476562 19.78125 20.503906 19.582031 20.5625 19.390625 C 20.617188 19.234375 20.671875 19.082031 20.753906 18.941406 C 20.808594 18.824219 20.851562 18.710938 20.957031 18.628906 C 21.046875 18.539062 21.136719 18.453125 21.246094 18.382812 C 21.359375 18.382812 21.46875 18.382812 21.570312 18.4375 C 21.695312 18.484375 21.808594 18.535156 21.90625 18.628906 C 22.0625 18.742188 22.210938 18.867188 22.359375 18.996094 C 22.574219 19.183594 22.785156 19.375 22.992188 19.570312 C 23.238281 19.785156 23.457031 20.03125 23.679688 20.269531 C 23.898438 20.511719 24.089844 20.777344 24.273438 21.046875 C 24.414062 21.308594 24.558594 21.566406 24.664062 21.839844 C 24.777344 22.0625 24.875 22.289062 24.929688 22.53125 C 24.96875 22.746094 24.992188 22.957031 24.941406 23.171875 C 24.90625 23.359375 24.863281 23.542969 24.769531 23.710938 C 24.675781 23.871094 24.578125 24.03125 24.457031 24.175781 C 24.363281 24.285156 24.285156 24.417969 24.179688 24.511719 C 23.976562 24.695312 23.734375 24.519531 23.871094 24.28125 Z M 23.871094 24.28125 "
     fill-opacity="1"
     fill-rule="nonzero"
     id="path7"
     style="fill:#909497;fill-opacity:1" />
  <path
     d="M 26.511719 24.226562 C 26.628906 24.21875 26.738281 24.179688 26.847656 24.140625 C 27.152344 24.003906 27.367188 23.742188 27.574219 23.492188 C 27.886719 23.0625 28.101562 22.582031 28.296875 22.089844 C 28.488281 21.589844 28.636719 21.070312 28.777344 20.550781 C 28.886719 20.128906 28.960938 19.695312 29.03125 19.261719 C 29.082031 18.925781 29.109375 18.582031 29.097656 18.238281 C 29.097656 17.980469 29.054688 17.726562 29.015625 17.476562 C 28.972656 17.28125 28.914062 17.09375 28.855469 16.90625 C 28.832031 16.792969 28.769531 16.707031 28.703125 16.617188 C 28.683594 16.582031 28.652344 16.558594 28.625 16.53125 C 28.738281 16.457031 28.484375 16.554688 28.453125 16.570312 C 28.21875 16.734375 28.035156 16.953125 27.863281 17.179688 C 27.597656 17.550781 27.40625 17.960938 27.207031 18.371094 C 26.953125 18.886719 26.730469 19.417969 26.527344 19.957031 C 26.3125 20.542969 26.128906 21.140625 25.972656 21.742188 C 25.832031 22.316406 25.726562 22.898438 25.667969 23.488281 C 25.621094 23.730469 25.632812 23.972656 25.644531 24.214844 C 25.648438 24.269531 25.570312 24.273438 25.566406 24.21875 C 25.554688 23.972656 25.550781 23.722656 25.546875 23.476562 C 25.605469 22.878906 25.710938 22.292969 25.890625 21.71875 C 26.066406 21.121094 26.234375 20.515625 26.457031 19.929688 C 26.660156 19.390625 26.871094 18.851562 27.136719 18.335938 C 27.339844 17.925781 27.535156 17.511719 27.742188 17.101562 C 27.890625 16.828125 28.050781 16.566406 28.269531 16.347656 C 28.425781 16.171875 28.574219 15.992188 28.832031 16.035156 C 28.96875 16.105469 29.078125 16.179688 29.167969 16.3125 C 29.242188 16.460938 29.304688 16.609375 29.34375 16.769531 C 29.390625 16.980469 29.429688 17.1875 29.460938 17.402344 C 29.5 17.679688 29.523438 17.960938 29.511719 18.242188 C 29.492188 18.605469 29.464844 18.972656 29.386719 19.332031 C 29.292969 19.765625 29.164062 20.195312 29.035156 20.625 C 28.882812 21.148438 28.722656 21.671875 28.527344 22.183594 C 28.328125 22.695312 28.117188 23.203125 27.839844 23.675781 C 27.640625 24.019531 27.414062 24.335938 27.085938 24.5625 C 26.941406 24.65625 26.789062 24.761719 26.625 24.792969 C 26.222656 24.863281 26.105469 24.246094 26.511719 24.226562 Z M 26.511719 24.226562 "
     fill-opacity="1"
     fill-rule="nonzero"
     id="path8"
     style="fill:#909497;fill-opacity:1" />
  <path
     d="M 28.097656 23.957031 C 28.242188 23.894531 28.378906 23.792969 28.507812 23.695312 C 28.816406 23.449219 29.089844 23.164062 29.359375 22.878906 C 29.640625 22.558594 29.894531 22.214844 30.132812 21.859375 C 30.34375 21.519531 30.554688 21.183594 30.75 20.835938 C 30.933594 20.53125 31.109375 20.222656 31.21875 19.882812 L 31.265625 19.71875 C 31.28125 19.667969 31.355469 19.6875 31.339844 19.742188 L 31.292969 19.90625 C 31.179688 20.25 31.085938 20.605469 30.921875 20.929688 C 30.738281 21.289062 30.535156 21.644531 30.296875 21.96875 C 30.046875 22.328125 29.804688 22.691406 29.519531 23.019531 C 29.261719 23.328125 28.980469 23.613281 28.71875 23.917969 C 28.597656 24.066406 28.480469 24.222656 28.335938 24.355469 C 28.097656 24.582031 27.796875 24.089844 28.097656 23.957031 Z M 28.097656 23.957031 "
     fill-opacity="1"
     fill-rule="nonzero"
     id="path9"
     style="fill:#909497;fill-opacity:1" />
  <path
     d="M 31.699219 17.121094 C 31.683594 17.046875 31.71875 16.941406 31.742188 16.855469 C 31.773438 16.722656 31.773438 16.585938 31.769531 16.445312 C 31.777344 16.332031 31.757812 16.21875 31.742188 16.109375 C 31.75 16.070312 31.714844 16.003906 31.710938 15.988281 C 31.808594 16.050781 31.710938 15.984375 31.699219 16.039062 C 31.5 16.191406 31.367188 16.410156 31.238281 16.625 C 30.996094 17.019531 30.734375 17.40625 30.476562 17.792969 C 30.191406 18.214844 29.902344 18.632812 29.621094 19.054688 C 29.339844 19.480469 29.074219 19.910156 28.828125 20.355469 C 28.800781 20.402344 28.734375 20.363281 28.761719 20.316406 C 29.007812 19.871094 29.273438 19.4375 29.554688 19.015625 C 29.835938 18.589844 30.128906 18.171875 30.414062 17.75 C 30.671875 17.363281 30.929688 16.980469 31.171875 16.585938 C 31.308594 16.355469 31.417969 16.109375 31.566406 15.886719 C 31.6875 15.761719 31.777344 15.707031 31.929688 15.820312 C 31.972656 15.90625 32.023438 15.980469 32.011719 16.089844 C 32.007812 16.210938 32.003906 16.332031 32.003906 16.457031 C 31.980469 16.601562 31.96875 16.742188 31.957031 16.890625 C 31.949219 16.984375 31.957031 17.101562 31.914062 17.171875 C 31.828125 17.304688 31.734375 17.273438 31.699219 17.121094 Z M 31.699219 17.121094 "
     fill-opacity="1"
     fill-rule="nonzero"
     id="path10"
     style="fill:#909497;fill-opacity:1" />
  <path
     d="M 30.035156 22.835938 C 30.125 22.632812 30.292969 22.492188 30.4375 22.335938 C 30.78125 21.96875 31.035156 21.535156 31.339844 21.140625 C 31.738281 20.664062 32.113281 20.171875 32.472656 19.667969 C 32.851562 19.109375 33.257812 18.558594 33.546875 17.945312 C 33.78125 17.464844 33.949219 16.957031 34.085938 16.4375 C 34.210938 16.027344 34.304688 15.605469 34.402344 15.1875 C 34.457031 14.875 34.5 14.5625 34.515625 14.246094 C 34.542969 14.078125 34.492188 13.921875 34.449219 13.765625 C 34.425781 13.710938 34.375 13.695312 34.335938 13.664062 C 34.332031 13.644531 34.261719 13.679688 34.230469 13.683594 C 33.867188 13.804688 33.605469 14.011719 33.363281 14.300781 C 33.140625 14.601562 33.25 14.445312 33.03125 14.769531 C 33 14.816406 32.9375 14.773438 32.96875 14.726562 C 33.191406 14.398438 33.078125 14.554688 33.304688 14.253906 C 33.558594 13.945312 33.746094 13.597656 34.011719 13.304688 C 34.226562 13.152344 34.433594 13.101562 34.667969 13.242188 C 34.789062 13.359375 34.890625 13.480469 34.921875 13.65625 C 34.933594 13.875 34.921875 14.078125 34.867188 14.292969 C 34.792969 14.613281 34.710938 14.925781 34.613281 15.238281 C 34.507812 15.660156 34.386719 16.078125 34.277344 16.496094 C 34.105469 17.011719 33.898438 17.515625 33.636719 17.992188 C 33.308594 18.589844 33.019531 19.210938 32.632812 19.777344 C 32.292969 20.300781 31.921875 20.800781 31.546875 21.296875 C 31.242188 21.695312 30.90625 22.066406 30.648438 22.496094 C 30.53125 22.683594 30.429688 22.878906 30.25 23.011719 C 30.089844 23.128906 29.953125 23.015625 30.035156 22.835938 Z M 30.035156 22.835938 "
     fill-opacity="1"
     fill-rule="nonzero"
     id="path11"
     style="fill:#909497;fill-opacity:1" />
  <path
     d="M 22.40625 25.410156 C 22.230469 25.355469 22.054688 25.300781 21.878906 25.25 C 21.402344 25.109375 20.9375 24.933594 20.476562 24.746094 C 19.820312 24.539062 19.210938 24.234375 18.636719 23.859375 C 18.03125 23.441406 17.535156 22.894531 17.070312 22.328125 C 16.6875 21.863281 16.355469 21.359375 16.035156 20.847656 C 15.859375 20.550781 15.738281 20.222656 15.605469 19.902344 C 15.539062 19.761719 15.480469 19.617188 15.417969 19.472656 C 15.382812 19.40625 15.347656 19.34375 15.308594 19.277344 C 15.265625 19.058594 15.394531 18.996094 15.589844 19 C 15.773438 19.074219 15.949219 19.175781 16.136719 19.242188 C 16.488281 19.398438 16.859375 19.511719 17.226562 19.632812 C 17.742188 19.847656 18.230469 20.128906 18.695312 20.441406 C 19.171875 20.726562 19.605469 21.058594 20.019531 21.425781 C 20.21875 21.648438 20.394531 21.890625 20.59375 22.121094 C 20.628906 22.160156 20.570312 22.210938 20.535156 22.171875 C 20.339844 21.945312 20.121094 21.757812 19.882812 21.578125 C 19.480469 21.21875 19.054688 20.882812 18.617188 20.5625 C 18.152344 20.273438 17.695312 19.960938 17.171875 19.78125 C 16.8125 19.640625 16.433594 19.558594 16.058594 19.476562 C 15.886719 19.414062 15.707031 19.367188 15.527344 19.355469 C 15.578125 19.316406 15.710938 19.28125 15.671875 19.15625 C 15.6875 19.210938 15.703125 19.292969 15.730469 19.351562 C 15.777344 19.507812 15.816406 19.667969 15.828125 19.832031 C 15.894531 20.164062 16.011719 20.476562 16.152344 20.785156 C 16.402344 21.328125 16.753906 21.816406 17.128906 22.28125 C 17.589844 22.839844 18.078125 23.382812 18.679688 23.796875 C 19.246094 24.167969 19.847656 24.472656 20.5 24.667969 C 20.972656 24.78125 21.453125 24.894531 21.9375 24.925781 C 22.09375 24.941406 22.257812 24.96875 22.414062 24.9375 C 22.742188 24.871094 22.722656 25.515625 22.40625 25.410156 Z M 22.40625 25.410156 "
     fill-opacity="1"
     fill-rule="nonzero"
     id="path12"
     style="fill:#909497;fill-opacity:1" />
  <path
     d="M 21.976562 25.386719 C 21.855469 25.441406 21.71875 25.460938 21.585938 25.476562 C 21.253906 25.507812 20.925781 25.535156 20.597656 25.539062 C 20.050781 25.539062 19.507812 25.527344 18.960938 25.527344 C 18.269531 25.539062 17.585938 25.488281 16.894531 25.445312 C 16.128906 25.390625 15.371094 25.28125 14.621094 25.121094 C 13.867188 24.960938 13.136719 24.726562 12.410156 24.480469 C 11.808594 24.28125 11.226562 24.027344 10.65625 23.757812 C 10.285156 23.566406 9.90625 23.390625 9.546875 23.183594 C 9.34375 23.078125 9.152344 22.941406 8.96875 22.804688 C 8.832031 22.703125 8.734375 22.574219 8.652344 22.429688 C 8.589844 22.316406 8.566406 22.191406 8.535156 22.066406 C 8.511719 21.980469 8.511719 21.898438 8.515625 21.8125 C 8.519531 21.675781 8.59375 21.59375 8.679688 21.496094 C 8.820312 21.425781 8.960938 21.445312 9.113281 21.457031 C 9.335938 21.445312 9.554688 21.460938 9.777344 21.460938 C 10.128906 21.484375 10.480469 21.503906 10.828125 21.542969 C 11.238281 21.589844 11.648438 21.648438 12.058594 21.695312 C 12.488281 21.738281 12.902344 21.859375 13.3125 21.976562 C 13.75 22.109375 14.183594 22.246094 14.621094 22.371094 C 15.046875 22.492188 15.4375 22.695312 15.84375 22.855469 C 15.894531 22.875 15.867188 22.945312 15.816406 22.925781 C 15.40625 22.765625 14.980469 22.710938 14.558594 22.589844 C 14.121094 22.464844 13.683594 22.339844 13.246094 22.210938 C 12.84375 22.097656 12.4375 22.007812 12.023438 21.941406 C 11.621094 21.875 11.210938 21.835938 10.804688 21.808594 C 10.464844 21.789062 10.125 21.757812 9.789062 21.789062 C 9.574219 21.804688 9.367188 21.84375 9.15625 21.878906 C 9.136719 21.882812 8.902344 21.957031 9.027344 21.933594 C 9.039062 21.914062 9.09375 21.851562 9.085938 21.839844 C 9.085938 21.851562 9.105469 21.925781 9.101562 21.964844 C 9.113281 22.027344 9.117188 22.089844 9.15625 22.144531 C 9.207031 22.214844 9.257812 22.289062 9.332031 22.34375 C 9.496094 22.480469 9.667969 22.605469 9.835938 22.734375 C 10.164062 22.972656 10.484375 23.214844 10.835938 23.414062 C 11.367188 23.730469 11.914062 24.023438 12.488281 24.253906 C 13.199219 24.515625 13.925781 24.726562 14.667969 24.882812 C 15.410156 25.023438 16.160156 25.128906 16.914062 25.171875 C 17.59375 25.214844 18.273438 25.203125 18.953125 25.171875 C 19.492188 25.152344 20.03125 25.117188 20.570312 25.0625 C 20.890625 25.027344 21.210938 25.003906 21.53125 24.96875 C 21.664062 24.957031 21.800781 24.945312 21.925781 24.988281 C 22.191406 25.082031 22.234375 25.265625 21.976562 25.386719 Z M 21.976562 25.386719 "
     fill-opacity="1"
     fill-rule="nonzero"
     id="path13"
     style="fill:#909497;fill-opacity:1" />
  <path
     d="M 23.648438 19.832031 C 23.703125 19.683594 23.796875 19.558594 23.902344 19.441406 C 24.082031 19.175781 24.261719 18.914062 24.449219 18.65625 C 24.636719 18.382812 24.832031 18.117188 25.050781 17.867188 C 25.226562 17.667969 25.4375 17.53125 25.695312 17.464844 C 25.964844 17.417969 26.195312 17.539062 26.402344 17.703125 C 26.660156 17.863281 26.765625 18.132812 26.921875 18.371094 L 26.988281 18.480469 C 27.015625 18.527344 26.949219 18.566406 26.921875 18.519531 L 26.859375 18.414062 C 26.714844 18.195312 26.476562 18.046875 26.289062 17.867188 C 26.113281 17.765625 25.941406 17.671875 25.734375 17.679688 C 25.511719 17.722656 25.320312 17.800781 25.15625 17.96875 C 24.921875 18.195312 24.71875 18.449219 24.535156 18.714844 C 24.367188 18.984375 24.199219 19.246094 24.054688 19.527344 C 24.015625 19.648438 23.960938 19.761719 23.949219 19.886719 C 23.921875 20.101562 23.578125 20.035156 23.648438 19.832031 Z M 23.648438 19.832031 "
     fill-opacity="1"
     fill-rule="nonzero"
     id="path14"
     style="fill:#909497;fill-opacity:1" />
  <path
     d="M 24.335938 18.726562 C 24.300781 18.675781 24.242188 18.636719 24.195312 18.597656 C 24.121094 18.515625 24.027344 18.453125 23.933594 18.390625 C 23.839844 18.335938 23.730469 18.304688 23.625 18.28125 C 23.503906 18.257812 23.382812 18.257812 23.261719 18.253906 C 23.144531 18.257812 23.035156 18.289062 22.925781 18.320312 C 22.824219 18.355469 22.746094 18.429688 22.660156 18.492188 C 22.570312 18.574219 22.5 18.671875 22.429688 18.773438 C 22.367188 18.867188 22.324219 18.972656 22.273438 19.074219 L 22.25 19.121094 C 22.226562 19.167969 22.167969 19.148438 22.175781 19.09375 L 22.1875 19.042969 C 22.21875 18.921875 22.246094 18.800781 22.308594 18.695312 C 22.382812 18.585938 22.457031 18.472656 22.550781 18.375 C 22.648438 18.285156 22.738281 18.195312 22.875 18.15625 C 23 18.121094 23.125 18.097656 23.257812 18.089844 C 23.390625 18.089844 23.523438 18.09375 23.65625 18.125 C 23.785156 18.152344 23.90625 18.183594 24.015625 18.257812 C 24.117188 18.324219 24.214844 18.390625 24.3125 18.460938 C 24.371094 18.511719 24.429688 18.5625 24.476562 18.625 C 24.554688 18.722656 24.402344 18.832031 24.335938 18.726562 Z M 24.335938 18.726562 "
     fill-opacity="1"
     fill-rule="nonzero"
     id="path15"
     style="fill:#909497;fill-opacity:1" />
  <path
     d="M 19.703125 21.039062 C 19.707031 20.957031 19.683594 20.878906 19.667969 20.796875 C 19.613281 20.59375 19.570312 20.382812 19.519531 20.175781 C 19.464844 19.886719 19.390625 19.601562 19.332031 19.3125 C 19.289062 19.019531 19.253906 18.734375 19.242188 18.441406 C 19.230469 18.175781 19.289062 17.914062 19.335938 17.65625 C 19.367188 17.46875 19.394531 17.28125 19.4375 17.097656 C 19.464844 16.953125 19.542969 16.878906 19.660156 16.800781 C 19.835938 16.738281 19.949219 16.8125 20.082031 16.925781 C 20.253906 17.113281 20.429688 17.300781 20.601562 17.488281 C 20.808594 17.699219 20.980469 17.941406 21.140625 18.1875 C 21.171875 18.234375 21.105469 18.277344 21.078125 18.230469 C 20.917969 17.988281 20.75 17.75 20.546875 17.539062 C 20.378906 17.359375 20.210938 17.171875 20 17.035156 C 19.914062 17 19.84375 16.945312 19.746094 16.964844 C 19.683594 17.019531 19.613281 17.058594 19.585938 17.148438 C 19.519531 17.320312 19.453125 17.492188 19.417969 17.671875 C 19.359375 17.921875 19.339844 18.179688 19.339844 18.4375 C 19.34375 18.722656 19.363281 19.011719 19.433594 19.289062 C 19.492188 19.574219 19.546875 19.867188 19.65625 20.136719 C 19.726562 20.335938 19.8125 20.523438 19.914062 20.707031 C 19.960938 20.792969 20.003906 20.882812 20.042969 20.972656 C 20.140625 21.195312 19.6875 21.285156 19.703125 21.039062 Z M 19.703125 21.039062 "
     fill-opacity="1"
     fill-rule="nonzero"
     id="path16"
     style="fill:#909497;fill-opacity:1" />
  <path
     d="M 17.136719 19.546875 C 17.097656 19.460938 17.085938 19.363281 17.0625 19.273438 C 17.019531 19.074219 16.972656 18.878906 16.941406 18.679688 C 16.898438 18.386719 16.847656 18.09375 16.78125 17.804688 C 16.734375 17.550781 16.664062 17.300781 16.628906 17.046875 C 16.589844 16.84375 16.558594 16.640625 16.527344 16.441406 C 16.507812 16.328125 16.488281 16.214844 16.476562 16.101562 C 16.480469 15.9375 16.554688 15.902344 16.695312 15.851562 C 16.8125 15.894531 16.890625 15.992188 16.976562 16.082031 C 17.121094 16.230469 17.246094 16.394531 17.375 16.554688 C 17.550781 16.75 17.707031 16.964844 17.859375 17.183594 C 18.027344 17.425781 18.183594 17.675781 18.34375 17.921875 C 18.5 18.140625 18.625 18.375 18.757812 18.609375 C 18.847656 18.835938 18.949219 19.0625 19.035156 19.292969 C 19.109375 19.5 19.171875 19.714844 19.234375 19.925781 C 19.261719 20.089844 19.285156 20.257812 19.320312 20.421875 C 19.328125 20.472656 19.261719 20.492188 19.246094 20.441406 C 19.191406 20.28125 19.132812 20.128906 19.066406 19.972656 C 19.007812 19.761719 18.941406 19.554688 18.882812 19.34375 C 18.804688 19.117188 18.746094 18.882812 18.621094 18.675781 C 18.507812 18.4375 18.375 18.210938 18.242188 17.984375 C 18.089844 17.738281 17.929688 17.492188 17.757812 17.257812 C 17.601562 17.046875 17.449219 16.835938 17.277344 16.636719 C 17.140625 16.492188 17.003906 16.351562 16.84375 16.238281 C 16.816406 16.222656 16.675781 16.109375 16.695312 16.164062 C 16.703125 16.160156 16.839844 16.074219 16.796875 16.101562 C 16.789062 16.203125 16.777344 16.308594 16.789062 16.410156 C 16.804688 16.609375 16.820312 16.8125 16.84375 17.011719 C 16.886719 17.261719 16.914062 17.515625 16.96875 17.769531 C 17.019531 18.054688 17.074219 18.34375 17.164062 18.621094 C 17.230469 18.804688 17.296875 18.992188 17.375 19.171875 C 17.414062 19.257812 17.457031 19.34375 17.480469 19.4375 C 17.542969 19.683594 17.246094 19.777344 17.136719 19.546875 Z M 17.136719 19.546875 "
     fill-opacity="1"
     fill-rule="nonzero"
     id="path17"
     style="fill:#909497;fill-opacity:1" />
  <path
     d="M 17.082031 19.578125 C 17.011719 19.484375 16.964844 19.367188 16.914062 19.257812 C 16.804688 19.015625 16.679688 18.785156 16.570312 18.542969 C 16.433594 18.269531 16.273438 18.011719 16.148438 17.734375 C 16.011719 17.441406 15.90625 17.136719 15.8125 16.828125 C 15.730469 16.546875 15.621094 16.277344 15.527344 16 C 15.429688 15.769531 15.378906 15.527344 15.316406 15.289062 C 15.277344 15.082031 15.253906 14.871094 15.21875 14.660156 C 15.207031 14.507812 15.164062 14.363281 15.152344 14.210938 C 15.136719 14.085938 15.125 13.960938 15.117188 13.835938 C 15.101562 13.757812 15.101562 13.675781 15.097656 13.59375 C 15.097656 13.480469 15.144531 13.375 15.175781 13.269531 C 15.199219 13.195312 15.222656 13.125 15.242188 13.054688 C 15.261719 12.957031 15.335938 12.910156 15.402344 12.847656 C 15.515625 12.773438 15.640625 12.789062 15.765625 12.804688 C 15.9375 12.878906 16.078125 12.996094 16.21875 13.109375 C 16.429688 13.269531 16.621094 13.449219 16.824219 13.621094 C 17.054688 13.851562 17.277344 14.089844 17.496094 14.335938 C 17.726562 14.585938 17.925781 14.863281 18.128906 15.132812 C 18.3125 15.390625 18.445312 15.679688 18.558594 15.976562 C 18.625 16.117188 18.6875 16.265625 18.746094 16.414062 C 18.769531 16.464844 18.699219 16.492188 18.675781 16.441406 C 18.617188 16.296875 18.558594 16.148438 18.488281 16.007812 C 18.332031 15.742188 18.1875 15.46875 18.019531 15.207031 C 17.839844 14.925781 17.621094 14.679688 17.382812 14.445312 C 17.152344 14.21875 16.941406 13.976562 16.695312 13.765625 C 16.507812 13.59375 16.304688 13.441406 16.085938 13.316406 C 15.953125 13.253906 15.824219 13.183594 15.675781 13.164062 C 15.648438 13.15625 15.632812 13.136719 15.613281 13.144531 C 15.605469 13.15625 15.589844 13.164062 15.582031 13.183594 C 15.554688 13.246094 15.527344 13.3125 15.5 13.378906 C 15.480469 13.449219 15.457031 13.507812 15.460938 13.582031 C 15.460938 13.664062 15.472656 13.746094 15.457031 13.828125 C 15.457031 13.949219 15.449219 14.066406 15.457031 14.1875 C 15.46875 14.339844 15.449219 14.488281 15.464844 14.636719 C 15.472656 14.84375 15.492188 15.046875 15.53125 15.246094 C 15.578125 15.480469 15.628906 15.714844 15.6875 15.949219 C 15.769531 16.230469 15.832031 16.515625 15.921875 16.792969 C 16.019531 17.09375 16.101562 17.402344 16.242188 17.6875 C 16.378906 17.957031 16.507812 18.234375 16.660156 18.496094 C 16.800781 18.714844 16.921875 18.949219 17.082031 19.152344 C 17.160156 19.242188 17.242188 19.328125 17.308594 19.421875 C 17.425781 19.578125 17.199219 19.734375 17.082031 19.578125 Z M 17.082031 19.578125 "
     fill-opacity="1"
     fill-rule="nonzero"
     id="path18"
     style="fill:#909497;fill-opacity:1" />
  <path
     d="M 18.972656 17.75 C 18.914062 17.617188 18.882812 17.476562 18.847656 17.339844 C 18.769531 17.085938 18.691406 16.832031 18.597656 16.585938 C 18.480469 16.292969 18.40625 15.988281 18.347656 15.679688 C 18.292969 15.367188 18.234375 15.054688 18.179688 14.746094 C 18.132812 14.511719 18.101562 14.273438 18.074219 14.035156 C 18.058594 13.839844 18.042969 13.644531 18.035156 13.449219 C 18.019531 13.304688 18.015625 13.160156 18.015625 13.015625 C 18.011719 12.910156 18.042969 12.804688 18.066406 12.703125 C 18.117188 12.574219 18.179688 12.53125 18.308594 12.503906 C 18.484375 12.53125 18.632812 12.632812 18.777344 12.730469 C 19 12.902344 19.226562 13.066406 19.445312 13.242188 C 19.683594 13.4375 19.878906 13.675781 20.066406 13.917969 C 20.1875 14.074219 20.304688 14.230469 20.410156 14.394531 C 20.441406 14.4375 20.382812 14.480469 20.351562 14.4375 C 20.230469 14.28125 20.117188 14.125 20.003906 13.964844 C 19.820312 13.726562 19.628906 13.492188 19.394531 13.300781 C 19.183594 13.128906 18.96875 12.949219 18.71875 12.828125 C 18.589844 12.769531 18.472656 12.683594 18.324219 12.691406 C 18.300781 12.710938 18.222656 12.683594 18.238281 12.757812 C 18.210938 12.847656 18.183594 12.933594 18.175781 13.027344 C 18.160156 13.167969 18.15625 13.308594 18.140625 13.445312 C 18.136719 13.640625 18.128906 13.832031 18.15625 14.027344 C 18.179688 14.261719 18.207031 14.5 18.253906 14.730469 C 18.3125 15.042969 18.367188 15.351562 18.421875 15.664062 C 18.480469 15.96875 18.550781 16.273438 18.671875 16.558594 C 18.773438 16.800781 18.898438 17.035156 19 17.28125 C 19.058594 17.402344 19.117188 17.523438 19.171875 17.644531 C 19.234375 17.792969 19.035156 17.898438 18.972656 17.75 Z M 18.972656 17.75 "
     fill-opacity="1"
     fill-rule="nonzero"
     id="path19"
     style="fill:#909497;fill-opacity:1" />
  <path
     d="M 19.125 17.652344 C 19.148438 17.539062 19.148438 17.421875 19.148438 17.308594 C 19.15625 17.117188 19.144531 16.925781 19.136719 16.738281 C 19.128906 16.539062 19.128906 16.34375 19.132812 16.148438 C 19.136719 16.003906 19.121094 15.863281 19.097656 15.722656 C 19.085938 15.605469 19.082031 15.492188 19.070312 15.375 C 19.050781 15.277344 19.070312 15.179688 19.089844 15.082031 C 19.097656 15 19.15625 14.949219 19.199219 14.886719 C 19.273438 14.792969 19.351562 14.808594 19.449219 14.800781 C 19.613281 14.828125 19.742188 14.917969 19.867188 15.011719 C 20.03125 15.148438 20.167969 15.304688 20.289062 15.476562 C 20.429688 15.695312 20.542969 15.925781 20.660156 16.152344 C 20.777344 16.382812 20.882812 16.613281 20.992188 16.84375 C 21.085938 17.035156 21.15625 17.234375 21.226562 17.433594 L 21.253906 17.511719 C 21.269531 17.566406 21.195312 17.589844 21.179688 17.535156 L 21.15625 17.457031 C 21.085938 17.261719 21.007812 17.066406 20.921875 16.875 C 20.816406 16.644531 20.707031 16.414062 20.59375 16.1875 C 20.476562 15.960938 20.363281 15.734375 20.226562 15.523438 C 20.113281 15.355469 19.984375 15.199219 19.816406 15.085938 C 19.699219 15.023438 19.582031 14.949219 19.445312 14.941406 C 19.398438 14.957031 19.347656 14.941406 19.3125 14.988281 C 19.28125 15.027344 19.246094 15.066406 19.222656 15.113281 C 19.214844 15.199219 19.203125 15.285156 19.203125 15.371094 C 19.207031 15.484375 19.214844 15.597656 19.222656 15.714844 C 19.21875 15.859375 19.214844 16.003906 19.207031 16.148438 C 19.207031 16.34375 19.203125 16.539062 19.214844 16.734375 C 19.222656 16.925781 19.226562 17.113281 19.257812 17.300781 C 19.273438 17.414062 19.285156 17.527344 19.328125 17.632812 C 19.382812 17.765625 19.101562 17.796875 19.125 17.65625 Z M 19.125 17.652344 "
     fill-opacity="1"
     fill-rule="nonzero"
     id="path20"
     style="fill:#909497;fill-opacity:1" />
  <path
     d="M 20.25 15.539062 C 20.269531 15.441406 20.273438 15.339844 20.28125 15.242188 C 20.28125 15.082031 20.316406 14.925781 20.355469 14.773438 C 20.390625 14.597656 20.449219 14.433594 20.515625 14.269531 C 20.585938 14.113281 20.699219 14.003906 20.832031 13.902344 C 20.945312 13.8125 21.074219 13.753906 21.203125 13.6875 C 21.339844 13.613281 21.476562 13.609375 21.625 13.621094 C 21.824219 13.679688 21.960938 13.824219 22.109375 13.960938 C 22.300781 14.140625 22.390625 14.390625 22.484375 14.632812 C 22.5 14.683594 22.429688 14.710938 22.410156 14.660156 C 22.324219 14.429688 22.203125 14.226562 22.023438 14.054688 C 21.890625 13.949219 21.761719 13.84375 21.59375 13.804688 C 21.476562 13.796875 21.382812 13.789062 21.277344 13.851562 C 21.15625 13.902344 21.039062 13.964844 20.929688 14.039062 C 20.828125 14.121094 20.726562 14.210938 20.671875 14.339844 C 20.605469 14.492188 20.542969 14.640625 20.515625 14.808594 C 20.492188 14.953125 20.472656 15.097656 20.472656 15.246094 C 20.476562 15.335938 20.476562 15.429688 20.507812 15.515625 C 20.570312 15.6875 20.21875 15.71875 20.25 15.539062 Z M 20.25 15.539062 "
     fill-opacity="1"
     fill-rule="nonzero"
     id="path21"
     style="fill:#909497;fill-opacity:1" />
  <path
     d="M 22.308594 16.140625 C 22.324219 16.054688 22.332031 15.96875 22.34375 15.878906 C 22.359375 15.703125 22.382812 15.527344 22.410156 15.347656 C 22.453125 15.148438 22.503906 14.949219 22.554688 14.75 C 22.585938 14.574219 22.636719 14.410156 22.699219 14.242188 C 22.742188 14.113281 22.804688 13.992188 22.878906 13.875 C 22.941406 13.773438 23.03125 13.703125 23.121094 13.628906 C 23.210938 13.539062 23.308594 13.515625 23.429688 13.496094 C 23.59375 13.492188 23.734375 13.554688 23.875 13.625 C 24.046875 13.757812 24.1875 13.921875 24.304688 14.101562 C 24.460938 14.320312 24.554688 14.574219 24.671875 14.8125 C 24.808594 15.054688 24.902344 15.316406 24.996094 15.578125 C 25.074219 15.820312 25.109375 16.070312 25.183594 16.3125 C 25.199219 16.367188 25.125 16.386719 25.109375 16.335938 C 25.035156 16.097656 24.921875 15.875 24.824219 15.644531 C 24.726562 15.390625 24.613281 15.140625 24.503906 14.894531 C 24.394531 14.664062 24.265625 14.441406 24.132812 14.222656 C 24.023438 14.070312 23.910156 13.917969 23.753906 13.8125 C 23.65625 13.742188 23.566406 13.671875 23.445312 13.667969 C 23.363281 13.6875 23.28125 13.695312 23.210938 13.746094 C 23.136719 13.8125 23.058594 13.875 22.992188 13.957031 C 22.925781 14.0625 22.851562 14.167969 22.804688 14.285156 C 22.742188 14.445312 22.675781 14.601562 22.628906 14.769531 C 22.578125 14.964844 22.523438 15.160156 22.496094 15.363281 C 22.476562 15.539062 22.453125 15.710938 22.453125 15.886719 C 22.457031 15.972656 22.453125 16.058594 22.472656 16.140625 C 22.496094 16.253906 22.289062 16.253906 22.308594 16.140625 Z M 22.308594 16.140625 "
     fill-opacity="1"
     fill-rule="nonzero"
     id="path22"
     style="fill:#909497;fill-opacity:1" />
  <path
     d="M 24.207031 12.769531 C 24.324219 12.640625 24.390625 12.476562 24.476562 12.328125 C 24.605469 12.109375 24.753906 11.902344 24.902344 11.695312 C 25.023438 11.523438 25.160156 11.363281 25.296875 11.207031 C 25.371094 11.09375 25.472656 11.015625 25.574219 10.933594 C 25.699219 10.863281 25.765625 10.90625 25.882812 10.957031 C 25.980469 11.050781 26.078125 11.148438 26.171875 11.242188 C 26.300781 11.433594 26.429688 11.621094 26.53125 11.828125 C 26.644531 12.046875 26.757812 12.261719 26.839844 12.496094 C 26.917969 12.691406 26.984375 12.894531 27.042969 13.097656 C 27.09375 13.234375 27.089844 13.378906 27.089844 13.515625 C 27.089844 13.570312 27.039062 13.582031 27.015625 13.53125 C 26.957031 13.414062 26.890625 13.289062 26.855469 13.15625 C 26.792969 12.957031 26.730469 12.757812 26.671875 12.558594 C 26.585938 12.335938 26.507812 12.109375 26.398438 11.898438 C 26.292969 11.707031 26.199219 11.503906 26.046875 11.34375 C 25.976562 11.246094 25.910156 11.144531 25.800781 11.085938 C 25.746094 11.066406 25.699219 11.027344 25.636719 11.046875 C 25.535156 11.105469 25.433594 11.167969 25.355469 11.257812 C 25.21875 11.414062 25.082031 11.570312 24.964844 11.742188 C 24.816406 11.945312 24.671875 12.148438 24.542969 12.367188 C 24.457031 12.515625 24.359375 12.667969 24.316406 12.835938 C 24.292969 12.925781 24.144531 12.835938 24.207031 12.769531 Z M 24.207031 12.769531 "
     fill-opacity="1"
     fill-rule="nonzero"
     id="path23"
     style="fill:#909497;fill-opacity:1" />
  <path
     d="M 25.007812 16.054688 C 25.050781 15.953125 25.125 15.871094 25.183594 15.777344 C 25.316406 15.578125 25.46875 15.394531 25.609375 15.199219 C 25.78125 14.972656 25.980469 14.773438 26.160156 14.554688 C 26.316406 14.363281 26.484375 14.191406 26.660156 14.019531 C 26.785156 13.894531 26.914062 13.773438 27.042969 13.652344 C 27.125 13.570312 27.226562 13.511719 27.324219 13.449219 C 27.507812 13.402344 27.5625 13.511719 27.589844 13.671875 C 27.644531 13.828125 27.664062 13.988281 27.683594 14.152344 C 27.714844 14.382812 27.726562 14.621094 27.734375 14.855469 C 27.742188 15.019531 27.75 15.183594 27.761719 15.347656 C 27.761719 15.402344 27.6875 15.40625 27.683594 15.351562 C 27.675781 15.1875 27.664062 15.023438 27.660156 14.859375 C 27.648438 14.625 27.640625 14.394531 27.605469 14.164062 C 27.5625 14.019531 27.53125 13.863281 27.457031 13.734375 C 27.402344 13.746094 27.371094 13.726562 27.4375 13.738281 C 27.367188 13.777344 27.292969 13.816406 27.230469 13.875 C 27.089844 13.980469 26.953125 14.085938 26.816406 14.195312 C 26.640625 14.351562 26.464844 14.507812 26.3125 14.6875 C 26.125 14.894531 25.964844 15.121094 25.796875 15.34375 C 25.65625 15.523438 25.550781 15.726562 25.457031 15.933594 C 25.410156 16.027344 25.378906 16.125 25.324219 16.210938 C 25.191406 16.421875 24.902344 16.28125 25.007812 16.054688 Z M 25.007812 16.054688 "
     fill-opacity="1"
     fill-rule="nonzero"
     id="path24"
     style="fill:#909497;fill-opacity:1" />
  <path
     d="M 25.878906 17.300781 C 25.9375 17.214844 26 17.128906 26.070312 17.050781 C 26.136719 16.941406 26.234375 16.867188 26.339844 16.796875 C 26.382812 16.765625 26.421875 16.816406 26.386719 16.855469 C 26.308594 16.941406 26.230469 17.027344 26.15625 17.113281 C 26.109375 17.195312 26.058594 17.277344 26.050781 17.371094 C 26.039062 17.503906 25.800781 17.410156 25.878906 17.300781 Z M 25.878906 17.300781 "
     fill-opacity="1"
     fill-rule="nonzero"
     id="path25"
     style="fill:#909497;fill-opacity:1" />
  <path
     d="M 27.132812 17.183594 C 27.109375 17.128906 27.070312 17.085938 27.035156 17.039062 C 26.945312 16.957031 26.835938 16.917969 26.730469 16.867188 L 26.65625 16.871094 C 26.601562 16.875 26.597656 16.796875 26.652344 16.796875 L 26.738281 16.792969 C 26.894531 16.777344 27.03125 16.78125 27.164062 16.890625 C 27.234375 16.949219 27.300781 17.003906 27.335938 17.09375 C 27.386719 17.238281 27.195312 17.328125 27.132812 17.183594 Z M 27.132812 17.183594 "
     fill-opacity="1"
     fill-rule="nonzero"
     id="path26"
     style="fill:#909497;fill-opacity:1" />
  <path
     d="M 27.621094 15.859375 C 27.527344 15.945312 27.492188 16.082031 27.457031 16.207031 C 27.378906 16.535156 27.359375 16.878906 27.339844 17.214844 C 27.328125 17.390625 27.332031 17.570312 27.339844 17.746094 C 27.34375 17.800781 27.265625 17.804688 27.265625 17.75 C 27.257812 17.570312 27.25 17.390625 27.261719 17.210938 C 27.285156 16.867188 27.328125 16.527344 27.351562 16.1875 C 27.371094 16.023438 27.367188 15.851562 27.425781 15.695312 C 27.484375 15.527344 27.75 15.734375 27.621094 15.859375 Z M 27.621094 15.859375 "
     fill-opacity="1"
     fill-rule="nonzero"
     id="path27"
     style="fill:#909497;fill-opacity:1" />
  <path
     d="M 27.886719 15.8125 C 27.867188 15.875 27.882812 15.941406 27.882812 16.003906 C 27.886719 16.058594 27.828125 16.070312 27.808594 16.019531 C 27.789062 15.960938 27.789062 15.902344 27.738281 15.863281 C 27.648438 15.796875 27.914062 15.703125 27.886719 15.8125 Z M 27.886719 15.8125 "
     fill-opacity="1"
     fill-rule="nonzero"
     id="path28"
     style="fill:#909497;fill-opacity:1" />
  <path
     d="M 28.15625 16.167969 C 28.148438 16.050781 28.136719 15.945312 28.148438 15.828125 C 28.160156 15.664062 28.207031 15.503906 28.25 15.347656 C 28.273438 15.207031 28.332031 15.082031 28.398438 14.957031 C 28.457031 14.855469 28.53125 14.78125 28.632812 14.71875 C 28.855469 14.691406 28.886719 14.839844 28.96875 15.015625 C 29.058594 15.28125 29.171875 15.535156 29.261719 15.800781 L 29.316406 15.972656 C 29.335938 16.023438 29.261719 16.046875 29.246094 15.996094 L 29.191406 15.824219 C 29.101562 15.566406 29.023438 15.304688 28.835938 15.101562 C 28.796875 15.066406 28.628906 14.976562 28.738281 14.980469 C 28.703125 15.011719 28.636719 15.035156 28.613281 15.09375 C 28.554688 15.195312 28.488281 15.292969 28.457031 15.40625 C 28.417969 15.554688 28.382812 15.703125 28.355469 15.851562 C 28.339844 15.960938 28.304688 16.0625 28.304688 16.167969 C 28.304688 16.273438 28.164062 16.273438 28.15625 16.167969 Z M 28.15625 16.167969 "
     fill-opacity="1"
     fill-rule="nonzero"
     id="path29"
     style="fill:#909497;fill-opacity:1" />
  <path
     d="M 27.476562 12.785156 C 27.578125 12.636719 27.691406 12.496094 27.789062 12.339844 C 27.953125 12.074219 28.109375 11.808594 28.265625 11.542969 C 28.378906 11.347656 28.503906 11.164062 28.628906 10.980469 C 28.714844 10.839844 28.824219 10.753906 28.972656 10.691406 C 29.15625 10.675781 29.257812 10.78125 29.367188 10.914062 C 29.515625 11.070312 29.574219 11.269531 29.628906 11.472656 C 29.710938 11.757812 29.78125 12.046875 29.820312 12.339844 C 29.875 12.640625 29.878906 12.949219 29.890625 13.253906 C 29.898438 13.382812 29.882812 13.507812 29.878906 13.636719 C 29.875 13.691406 29.800781 13.6875 29.800781 13.632812 C 29.804688 13.507812 29.796875 13.382812 29.800781 13.253906 C 29.808594 12.953125 29.785156 12.648438 29.742188 12.351562 C 29.691406 12.066406 29.648438 11.777344 29.558594 11.5 C 29.480469 11.320312 29.375 11.164062 29.261719 11.003906 C 29.183594 10.933594 29.121094 10.851562 29.007812 10.839844 C 28.882812 10.878906 28.785156 10.921875 28.703125 11.035156 C 28.5625 11.207031 28.441406 11.386719 28.332031 11.582031 C 28.175781 11.847656 28.019531 12.113281 27.855469 12.378906 C 27.761719 12.53125 27.683594 12.691406 27.609375 12.851562 C 27.5625 12.945312 27.421875 12.871094 27.476562 12.785156 Z M 27.476562 12.785156 "
     fill-opacity="1"
     fill-rule="nonzero"
     id="path30"
     style="fill:#909497;fill-opacity:1" />
  <path
     d="M 29.644531 13.804688 C 29.769531 13.726562 29.863281 13.605469 29.964844 13.5 C 30.0625 13.382812 30.144531 13.253906 30.238281 13.132812 C 30.300781 13.046875 30.382812 12.976562 30.464844 12.910156 C 30.613281 12.867188 30.691406 12.898438 30.800781 12.996094 C 30.898438 13.152344 30.941406 13.316406 30.980469 13.492188 C 31.007812 13.792969 31.027344 14.09375 31.019531 14.394531 C 31.011719 14.753906 30.960938 15.109375 30.917969 15.46875 C 30.835938 15.863281 30.730469 16.253906 30.597656 16.632812 C 30.445312 16.996094 30.363281 17.386719 30.179688 17.730469 C 30.054688 17.867188 29.96875 18.007812 29.90625 18.179688 C 29.886719 18.230469 29.816406 18.203125 29.835938 18.152344 C 29.898438 17.984375 29.925781 17.820312 29.921875 17.636719 C 30.003906 17.257812 30.203125 16.914062 30.308594 16.535156 C 30.425781 16.171875 30.558594 15.808594 30.582031 15.421875 C 30.628906 15.082031 30.652344 14.738281 30.65625 14.390625 C 30.652344 14.117188 30.648438 13.839844 30.578125 13.570312 C 30.546875 13.441406 30.523438 13.3125 30.507812 13.183594 C 30.515625 13.171875 30.5625 13.136719 30.558594 13.117188 C 30.492188 13.148438 30.410156 13.179688 30.351562 13.242188 C 30.234375 13.335938 30.121094 13.433594 30.019531 13.550781 C 29.929688 13.65625 29.820312 13.757812 29.785156 13.898438 C 29.757812 14.015625 29.542969 13.871094 29.644531 13.804688 Z M 29.644531 13.804688 "
     fill-opacity="1"
     fill-rule="nonzero"
     id="path31"
     style="fill:#909497;fill-opacity:1" />
  <path
     d="M 21.136719 13.546875 C 21.191406 13.386719 21.28125 13.238281 21.351562 13.082031 C 21.5 12.753906 21.625 12.417969 21.753906 12.078125 C 21.867188 11.785156 21.960938 11.484375 22.082031 11.191406 C 22.140625 10.992188 22.214844 10.796875 22.300781 10.609375 C 22.367188 10.460938 22.46875 10.355469 22.597656 10.261719 C 22.804688 10.152344 22.945312 10.253906 23.113281 10.382812 C 23.28125 10.5625 23.449219 10.746094 23.578125 10.957031 C 23.734375 11.195312 23.878906 11.441406 24.015625 11.691406 C 24.136719 11.921875 24.234375 12.15625 24.332031 12.394531 C 24.355469 12.445312 24.285156 12.472656 24.261719 12.421875 C 24.164062 12.191406 24.066406 11.953125 23.949219 11.730469 C 23.816406 11.484375 23.660156 11.257812 23.449219 11.066406 C 23.277344 10.921875 23.128906 10.746094 22.933594 10.625 C 22.878906 10.597656 22.824219 10.5625 22.769531 10.539062 C 22.699219 10.605469 22.628906 10.667969 22.589844 10.757812 C 22.492188 10.929688 22.398438 11.105469 22.316406 11.285156 C 22.195312 11.578125 22.058594 11.863281 21.945312 12.15625 C 21.808594 12.480469 21.664062 12.8125 21.605469 13.160156 C 21.582031 13.316406 21.566406 13.472656 21.554688 13.625 C 21.535156 13.929688 21.03125 13.832031 21.136719 13.546875 Z M 21.136719 13.546875 "
     fill-opacity="1"
     fill-rule="nonzero"
     id="path32"
     style="fill:#909497;fill-opacity:1" />
  <path
     d="M 18.664062 12.554688 C 18.757812 12.476562 18.832031 12.382812 18.910156 12.292969 C 19.011719 12.132812 19.105469 11.96875 19.207031 11.808594 C 19.234375 11.761719 19.265625 11.714844 19.296875 11.667969 C 19.324219 11.625 19.386719 11.667969 19.359375 11.710938 C 19.328125 11.757812 19.296875 11.800781 19.269531 11.847656 C 19.171875 12.007812 19.070312 12.167969 18.980469 12.335938 C 18.941406 12.445312 18.894531 12.554688 18.875 12.671875 C 18.847656 12.839844 18.53125 12.664062 18.664062 12.554688 Z M 18.664062 12.554688 "
     fill-opacity="1"
     fill-rule="nonzero"
     id="path33"
     style="fill:#909497;fill-opacity:1" />
  <path
     d="M 20.503906 11.121094 C 20.617188 11.136719 20.707031 11.207031 20.804688 11.261719 C 20.929688 11.34375 21.058594 11.417969 21.1875 11.496094 C 21.304688 11.558594 21.402344 11.644531 21.496094 11.742188 C 21.5625 11.824219 21.625 11.898438 21.703125 11.96875 C 21.753906 12.015625 21.800781 12.066406 21.847656 12.117188 L 21.804688 12.195312 C 21.773438 12.246094 21.792969 12.222656 21.738281 12.253906 L 21.667969 12.296875 C 21.613281 12.246094 21.5625 12.199219 21.515625 12.144531 C 21.457031 12.054688 21.390625 11.980469 21.320312 11.902344 C 21.242188 11.820312 21.160156 11.742188 21.070312 11.675781 C 20.953125 11.585938 20.835938 11.5 20.699219 11.449219 C 20.613281 11.402344 20.527344 11.363281 20.441406 11.320312 C 20.308594 11.257812 20.359375 11.101562 20.503906 11.121094 Z M 20.503906 11.121094 "
     fill-opacity="1"
     fill-rule="nonzero"
     id="path34"
     style="fill:#909497;fill-opacity:1" />
  <path
     d="M 25.886719 10.941406 C 25.988281 10.886719 26.066406 10.804688 26.148438 10.730469 C 26.304688 10.609375 26.425781 10.457031 26.558594 10.3125 C 26.644531 10.199219 26.742188 10.097656 26.84375 9.992188 C 26.953125 9.886719 27.0625 9.886719 27.207031 9.894531 C 27.378906 9.964844 27.496094 10.113281 27.625 10.242188 C 27.777344 10.414062 27.90625 10.601562 28.042969 10.789062 C 28.140625 10.929688 28.242188 11.070312 28.316406 11.226562 C 28.34375 11.292969 28.324219 11.359375 28.316406 11.429688 C 28.308594 11.480469 28.289062 11.484375 28.242188 11.457031 C 28.195312 11.421875 28.140625 11.386719 28.105469 11.335938 C 28.019531 11.195312 27.957031 11.042969 27.871094 10.902344 C 27.757812 10.710938 27.640625 10.527344 27.488281 10.371094 C 27.386719 10.273438 27.296875 10.171875 27.15625 10.132812 C 27.09375 10.136719 27.042969 10.105469 26.988281 10.167969 C 26.882812 10.25 26.777344 10.335938 26.679688 10.429688 C 26.542969 10.566406 26.402344 10.699219 26.296875 10.863281 C 26.226562 10.953125 26.15625 11.042969 26.105469 11.144531 C 26.011719 11.332031 25.707031 11.046875 25.886719 10.941406 Z M 25.886719 10.941406 "
     fill-opacity="1"
     fill-rule="nonzero"
     id="path35"
     style="fill:#909497;fill-opacity:1" />
  <path
     d="M 16.011719 12.929688 C 16.027344 12.820312 16.039062 12.707031 16.054688 12.597656 C 16.082031 12.4375 16.101562 12.28125 16.117188 12.121094 C 16.125 11.984375 16.175781 11.871094 16.242188 11.761719 C 16.375 11.625 16.496094 11.636719 16.664062 11.660156 C 16.84375 11.710938 17 11.792969 17.15625 11.890625 C 17.316406 12.023438 17.472656 12.160156 17.625 12.304688 C 17.738281 12.398438 17.816406 12.515625 17.894531 12.640625 C 17.921875 12.683594 17.875 12.722656 17.835938 12.6875 C 17.730469 12.59375 17.628906 12.5 17.542969 12.386719 C 17.402344 12.242188 17.265625 12.089844 17.09375 11.984375 C 16.957031 11.894531 16.828125 11.792969 16.65625 11.816406 C 16.582031 11.84375 16.5 11.851562 16.445312 11.914062 C 16.40625 11.992188 16.347656 12.0625 16.335938 12.160156 C 16.296875 12.3125 16.269531 12.460938 16.257812 12.617188 C 16.25 12.734375 16.230469 12.847656 16.214844 12.960938 C 16.195312 13.105469 15.992188 13.074219 16.011719 12.929688 Z M 16.011719 12.929688 "
     fill-opacity="1"
     fill-rule="nonzero"
     id="path36"
     style="fill:#909497;fill-opacity:1" />
  <path
     d="M 22.210938 17.320312 C 22.269531 17.421875 22.28125 17.535156 22.292969 17.648438 C 22.324219 17.855469 22.339844 18.035156 22.242188 18.226562 L 22.257812 18.339844 C 22.265625 18.394531 22.1875 18.402344 22.179688 18.351562 L 22.167969 18.234375 C 22.03125 18.078125 22.003906 17.90625 21.972656 17.703125 C 21.949219 17.585938 21.921875 17.46875 21.964844 17.355469 C 22.023438 17.191406 22.121094 17.171875 22.210938 17.320312 Z M 22.210938 17.320312 "
     fill-opacity="1"
     fill-rule="nonzero"
     id="path37"
     style="fill:#909497;fill-opacity:1" />
  <path
     d="M 22.96875 17.132812 C 22.976562 17.273438 22.957031 17.441406 22.957031 17.597656 C 22.964844 17.78125 22.917969 17.960938 22.9375 18.144531 C 22.945312 18.199219 22.871094 18.207031 22.863281 18.152344 C 22.839844 17.964844 22.757812 17.796875 22.746094 17.605469 C 22.730469 17.460938 22.699219 17.300781 22.679688 17.164062 C 22.648438 16.960938 22.957031 16.925781 22.96875 17.132812 Z M 22.96875 17.132812 "
     fill-opacity="1"
     fill-rule="nonzero"
     id="path38"
     style="fill:#909497;fill-opacity:1" />
  <path
     d="M 23.785156 16.421875 C 23.800781 16.574219 23.765625 16.722656 23.742188 16.875 C 23.734375 17.164062 23.609375 17.421875 23.53125 17.691406 C 23.515625 17.746094 23.464844 17.742188 23.453125 17.691406 C 23.394531 17.410156 23.308594 17.144531 23.332031 16.855469 C 23.320312 16.722656 23.300781 16.59375 23.292969 16.464844 C 23.265625 16.113281 23.757812 16.074219 23.785156 16.421875 Z M 23.785156 16.421875 "
     fill-opacity="1"
     fill-rule="nonzero"
     id="path39"
     style="fill:#909497;fill-opacity:1" />
  <path
     d="M 24.328125 17.136719 C 24.304688 17.265625 24.277344 17.394531 24.257812 17.527344 C 24.238281 17.679688 24.1875 17.824219 24.160156 17.972656 C 24.152344 18.027344 24.085938 18.023438 24.085938 17.96875 C 24.082031 17.8125 24.058594 17.660156 24.082031 17.503906 C 24.09375 17.375 24.101562 17.25 24.101562 17.121094 C 24.101562 16.960938 24.351562 16.976562 24.328125 17.136719 Z M 24.328125 17.136719 "
     fill-opacity="1"
     fill-rule="nonzero"
     id="path40"
     style="fill:#909497;fill-opacity:1" />
  <path
     d="M 25.101562 16.800781 C 25.066406 16.984375 24.992188 17.171875 24.941406 17.359375 C 24.867188 17.605469 24.75 17.820312 24.707031 18.078125 C 24.699219 18.132812 24.625 18.117188 24.632812 18.066406 C 24.675781 17.8125 24.644531 17.570312 24.652344 17.3125 C 24.65625 17.128906 24.636719 16.945312 24.621094 16.765625 C 24.589844 16.425781 25.167969 16.464844 25.101562 16.800781 Z M 25.101562 16.800781 "
     fill-opacity="1"
     fill-rule="nonzero"
     id="path41"
     style="fill:#909497;fill-opacity:1" />
  <path
     d="M 26.328125 26.320312 C 26.425781 26.449219 26.539062 26.566406 26.648438 26.691406 C 26.921875 26.871094 27.195312 27.078125 27.425781 27.3125 C 27.703125 27.605469 27.976562 27.898438 28.253906 28.191406 C 28.476562 28.433594 28.761719 28.601562 29.027344 28.789062 C 29.296875 28.945312 29.582031 29.039062 29.875 29.121094 C 30.28125 29.214844 30.699219 29.222656 31.109375 29.222656 C 31.699219 29.207031 32.289062 29.152344 32.871094 29.046875 C 33.546875 28.933594 34.203125 28.722656 34.84375 28.480469 C 35.375 28.273438 35.894531 28.03125 36.40625 27.773438 C 36.675781 27.625 36.957031 27.484375 37.230469 27.335938 C 37.386719 27.25 37.539062 27.1875 37.714844 27.164062 C 37.824219 27.21875 37.941406 27.25 38.046875 27.292969 C 38.121094 27.320312 38.113281 27.316406 38.097656 27.390625 C 38.074219 27.503906 38.042969 27.625 38.015625 27.742188 C 37.863281 27.882812 37.707031 27.972656 37.5 28.019531 C 37.203125 28.101562 36.910156 28.199219 36.613281 28.285156 C 36.0625 28.460938 35.519531 28.660156 34.976562 28.859375 C 34.308594 29.085938 33.640625 29.300781 32.953125 29.460938 C 32.351562 29.59375 31.75 29.722656 31.132812 29.765625 C 30.664062 29.808594 30.191406 29.835938 29.722656 29.753906 C 29.347656 29.671875 28.976562 29.535156 28.675781 29.296875 C 28.375 29.070312 28.105469 28.835938 27.871094 28.535156 C 27.613281 28.230469 27.367188 27.914062 27.109375 27.609375 C 26.894531 27.367188 26.699219 27.105469 26.492188 26.855469 C 26.363281 26.746094 26.230469 26.632812 26.101562 26.523438 C 25.9375 26.386719 26.195312 26.148438 26.328125 26.320312 Z M 26.328125 26.320312 "
     fill-opacity="1"
     fill-rule="nonzero"
     id="path42"
     style="fill:#909497;fill-opacity:1" />
  <path
     d="M 30.539062 24 C 30.839844 24.035156 31.136719 23.996094 31.433594 23.949219 C 32.160156 23.859375 32.855469 23.617188 33.542969 23.375 C 34.3125 23.109375 35.0625 22.800781 35.804688 22.460938 C 36.300781 22.207031 36.761719 21.894531 37.21875 21.574219 C 37.507812 21.371094 37.800781 21.171875 38.082031 20.953125 C 38.289062 20.796875 38.472656 20.617188 38.644531 20.429688 C 38.746094 20.328125 38.820312 20.21875 38.890625 20.097656 C 38.902344 20.070312 38.894531 20.039062 38.894531 20.007812 C 38.933594 20.015625 38.691406 19.933594 38.652344 19.921875 C 38.238281 19.847656 37.8125 19.863281 37.394531 19.890625 C 36.816406 19.917969 36.246094 20.003906 35.675781 20.082031 C 35.121094 20.171875 34.570312 20.257812 34.015625 20.355469 C 33.941406 20.367188 33.921875 20.261719 33.996094 20.25 C 34.550781 20.152344 35.105469 20.066406 35.660156 19.976562 C 36.234375 19.894531 36.808594 19.828125 37.382812 19.757812 C 37.820312 19.707031 38.25 19.636719 38.6875 19.59375 C 38.941406 19.601562 39.179688 19.585938 39.335938 19.816406 C 39.367188 19.988281 39.386719 20.121094 39.289062 20.277344 C 39.203125 20.445312 39.121094 20.621094 38.980469 20.753906 C 38.769531 20.941406 38.554688 21.125 38.320312 21.285156 C 38.015625 21.484375 37.714844 21.695312 37.386719 21.855469 C 36.882812 22.113281 36.371094 22.34375 35.847656 22.558594 C 35.105469 22.902344 34.351562 23.210938 33.578125 23.476562 C 32.882812 23.722656 32.1875 23.964844 31.503906 24.230469 C 31.191406 24.332031 30.886719 24.457031 30.574219 24.558594 C 30.199219 24.6875 30.144531 23.953125 30.539062 24 Z M 30.539062 24 "
     fill-opacity="1"
     fill-rule="nonzero"
     id="path43"
     style="fill:#909497;fill-opacity:1" />
  <path
     d="M 24.902344 26.742188 C 24.746094 26.714844 24.601562 26.769531 24.457031 26.8125 C 24.214844 27.003906 24.25 26.828125 24.183594 26.820312 C 24.332031 26.882812 24.5 26.855469 24.660156 26.847656 C 24.878906 26.792969 24.945312 26.765625 25.128906 26.847656 C 25.109375 27 25.015625 27.121094 24.949219 27.261719 C 25.101562 27.484375 25.070312 27.773438 25.117188 28.066406 C 25.140625 28.425781 25.214844 28.765625 25.15625 29.125 C 25.046875 29.8125 24.976562 30.503906 24.90625 31.195312 C 24.832031 32.28125 24.738281 33.363281 24.703125 34.453125 C 24.660156 35.519531 24.667969 36.589844 24.625 37.660156 C 24.660156 38.167969 24.53125 38.660156 24.472656 39.160156 C 24.464844 39.238281 24.371094 39.238281 24.363281 39.160156 C 24.320312 38.65625 24.207031 38.160156 24.273438 37.648438 C 24.289062 36.578125 24.359375 35.511719 24.375 34.441406 C 24.402344 33.355469 24.382812 32.265625 24.382812 31.175781 C 24.359375 30.46875 24.335938 29.765625 24.320312 29.058594 C 24.320312 28.703125 24.457031 28.398438 24.523438 28.054688 C 24.546875 27.726562 24.578125 27.460938 24.765625 27.214844 C 24.777344 27.160156 24.84375 26.765625 24.863281 26.949219 C 24.800781 26.949219 24.734375 26.960938 24.667969 26.957031 C 24.457031 26.96875 24.234375 27 24.035156 26.917969 C 23.882812 26.632812 24.144531 26.625 24.367188 26.539062 C 24.523438 26.484375 24.6875 26.433594 24.839844 26.359375 C 25.085938 26.242188 25.171875 26.789062 24.902344 26.742188 Z M 24.902344 26.742188 "
     fill-opacity="1"
     fill-rule="nonzero"
     id="path44"
     style="fill:#909497;fill-opacity:1" />
  <g
     clip-path="url(#8ec1221cea)"
     id="g45"
     style="fill:#909497;fill-opacity:1">
    <path
       d="M 23.679688 38.648438 C 24.367188 38.589844 24.976562 38.113281 25.570312 37.785156 C 27.335938 36.832031 29.207031 36.101562 31.09375 35.425781 C 33.382812 34.621094 35.761719 34.132812 38.167969 33.847656 C 39.800781 33.683594 41.453125 33.765625 43.078125 33.957031 C 44.375 34.15625 44.25 35.171875 43.390625 35.863281 C 43.019531 36.082031 42.683594 36.378906 42.425781 36.726562 C 42.175781 35.714844 42.769531 36.378906 43.382812 36.734375 C 44.132812 37.09375 44.757812 37.546875 45.109375 38.3125 C 45.308594 39.246094 44.628906 39.757812 43.914062 40.183594 C 42.914062 40.664062 41.832031 40.9375 40.75 41.15625 C 39.132812 41.382812 37.507812 41.375 35.882812 41.300781 C 33.746094 41.160156 31.621094 40.929688 29.488281 40.734375 C 27.667969 40.558594 25.84375 40.484375 24.011719 40.441406 C 23.277344 40.414062 22.457031 40.386719 21.828125 40.761719 C 22.15625 40.023438 22.136719 40.277344 23 40.566406 C 24.34375 40.984375 25.753906 41.109375 27.152344 41.167969 C 28.859375 41.21875 30.5625 41.207031 32.265625 41.207031 C 33.769531 41.214844 35.269531 41.234375 36.769531 41.214844 C 37.421875 41.207031 38.074219 41.179688 38.726562 41.15625 C 38.835938 41.152344 38.84375 41.304688 38.734375 41.308594 C 38.082031 41.332031 37.425781 41.359375 36.773438 41.367188 C 35.269531 41.386719 33.769531 41.367188 32.265625 41.359375 C 30.5625 41.359375 28.855469 41.375 27.148438 41.320312 C 25.726562 41.261719 24.304688 41.226562 22.882812 41.136719 C 22.382812 41.09375 20.398438 40.84375 21.65625 40.054688 C 22.441406 40.167969 23.222656 40.3125 24.015625 40.289062 C 25.847656 40.332031 27.679688 40.402344 29.503906 40.582031 C 31.632812 40.777344 33.757812 41.007812 35.886719 41.148438 C 37.488281 41.222656 39.125 41.3125 40.6875 40.890625 C 41.703125 40.617188 42.679688 40.25 43.519531 39.597656 C 43.859375 39.335938 44.1875 39.066406 44.234375 38.617188 C 44.046875 38.035156 43.660156 37.675781 43.074219 37.441406 C 42.265625 37.199219 41.359375 37.339844 41.296875 36.285156 C 41.695312 35.789062 42.34375 35.644531 42.804688 35.203125 C 43.128906 34.859375 43.40625 34.972656 42.90625 34.492188 C 41.46875 33.675781 39.78125 33.890625 38.1875 34 C 35.792969 34.285156 33.425781 34.769531 31.144531 35.570312 C 29.265625 36.242188 27.402344 36.96875 25.644531 37.921875 C 25.019531 38.261719 24.347656 38.5625 23.8125 39.035156 C 23.59375 39.226562 23.390625 38.671875 23.679688 38.648438 Z M 23.679688 38.648438 "
       fill-opacity="1"
       fill-rule="nonzero"
       id="path45"
       style="fill:#909497;fill-opacity:1" />
  </g>
  <g
     clip-path="url(#5bc2bf1638)"
     id="g46"
     style="fill:#909497;fill-opacity:1">
    <path
       d="M 23.160156 38.519531 C 23.0625 37.996094 22.804688 37.519531 22.566406 37.042969 C 21.75 35.777344 20.433594 34.9375 19.179688 34.152344 C 17.253906 33.011719 15.136719 32.277344 13 31.652344 C 10.789062 31.039062 8.511719 30.753906 6.226562 30.695312 C 4.785156 30.753906 3.097656 30.722656 1.988281 31.773438 C 1.359375 32.753906 1.953125 33.660156 2.648438 34.410156 C 4.195312 35.753906 6.113281 36.511719 8.019531 37.183594 C 9.746094 37.710938 11.558594 38.191406 13.371094 37.925781 C 14.085938 37.695312 14.542969 37.34375 14.257812 36.609375 C 13.570312 35.351562 12.152344 35.007812 10.871094 34.667969 C 8.976562 34.214844 7.039062 34.152344 5.105469 34.28125 C 3.863281 34.46875 2.328125 34.523438 1.464844 35.554688 C 1.0625 36.324219 1.722656 36.945312 2.253906 37.449219 C 3.859375 38.453125 5.726562 38.890625 7.554688 39.308594 C 9.886719 39.816406 12.269531 39.957031 14.648438 39.960938 C 16.449219 39.949219 18.242188 39.777344 20.023438 39.539062 C 20.128906 39.523438 20.152344 39.675781 20.042969 39.6875 C 18.253906 39.929688 16.457031 40.105469 14.648438 40.113281 C 12.257812 40.109375 9.863281 39.96875 7.519531 39.457031 C 5.671875 39.035156 3.785156 38.589844 2.160156 37.570312 C 1.328125 37.066406 0.304688 36.242188 1.238281 35.289062 C 2.410156 34.570312 3.734375 34.242188 5.097656 34.128906 C 7.046875 34 9 34.0625 10.910156 34.519531 C 12.296875 34.886719 13.800781 35.320312 14.863281 36.332031 C 15.457031 37.550781 14.605469 38.191406 13.390625 38.171875 C 11.542969 38.183594 9.722656 37.949219 7.96875 37.328125 C 6.039062 36.644531 4.101562 35.878906 2.539062 34.515625 C 1.707031 33.695312 0.644531 32.59375 1.828125 31.558594 C 3.175781 30.757812 4.667969 30.511719 6.230469 30.539062 C 8.53125 30.601562 10.820312 30.886719 13.042969 31.503906 C 15.195312 32.132812 17.324219 32.875 19.261719 34.023438 C 20.558594 34.832031 21.769531 35.742188 22.820312 36.863281 C 23.238281 37.289062 23.65625 37.769531 23.875 38.332031 C 24.066406 38.816406 23.253906 39.03125 23.160156 38.515625 Z M 23.160156 38.519531 "
       fill-opacity="1"
       fill-rule="nonzero"
       id="path46"
       style="fill:#909497;fill-opacity:1" />
  </g>
  <path
     d="M 38.296875 4.828125 C 38.375 4.769531 38.296875 4.671875 38.289062 4.65625 C 38.417969 4.664062 38.546875 4.636719 38.667969 4.601562 C 38.773438 4.546875 38.917969 4.554688 39.007812 4.480469 C 39.015625 4.472656 39.023438 4.484375 39.015625 4.492188 C 38.914062 4.578125 38.832031 4.675781 38.695312 4.703125 C 38.5625 4.75 38.429688 4.8125 38.292969 4.84375 C 38.171875 4.847656 38.109375 4.730469 38.210938 4.636719 C 38.316406 4.539062 38.183594 4.917969 38.296875 4.828125 Z M 38.296875 4.828125 "
     fill-opacity="1"
     fill-rule="nonzero"
     id="path47"
     style="fill:#909497;fill-opacity:1" />
  <path
     d="M 38.820312 4.101562 C 38.894531 4.125 38.878906 4.246094 38.882812 4.316406 C 38.890625 4.46875 38.914062 4.617188 38.960938 4.761719 C 39 4.875 39.027344 4.792969 38.953125 4.796875 C 38.941406 4.796875 38.921875 4.820312 38.933594 4.828125 C 38.945312 4.839844 38.96875 4.824219 38.984375 4.824219 L 39.007812 4.769531 C 39.011719 4.761719 39.023438 4.765625 39.019531 4.777344 L 38.996094 4.832031 C 39.03125 5.054688 38.800781 4.96875 38.828125 4.796875 C 38.804688 4.644531 38.785156 4.488281 38.753906 4.335938 C 38.738281 4.265625 38.695312 4.179688 38.742188 4.117188 C 38.777344 4.070312 38.769531 4.085938 38.820312 4.101562 Z M 38.820312 4.101562 "
     fill-opacity="1"
     fill-rule="nonzero"
     id="path48"
     style="fill:#909497;fill-opacity:1" />
  <g
     clip-path="url(#6e072dc342)"
     id="g49"
     style="fill:#909497;fill-opacity:1">
    <path
       d="M 39.273438 4.050781 C 39.292969 3.996094 39.3125 3.949219 39.359375 3.910156 C 39.535156 3.933594 39.472656 4.128906 39.449219 4.261719 C 39.429688 4.40625 39.394531 4.546875 39.421875 4.691406 C 39.382812 4.707031 39.445312 4.730469 39.445312 4.71875 C 39.441406 4.679688 39.390625 4.664062 39.359375 4.652344 C 39.433594 4.585938 39.507812 4.519531 39.589844 4.460938 C 39.699219 4.367188 39.847656 4.351562 39.988281 4.34375 C 40.09375 4.347656 40.207031 4.300781 40.3125 4.324219 C 40.355469 4.359375 40.335938 4.339844 40.371094 4.394531 C 40.375 4.402344 40.375 4.394531 40.375 4.40625 C 40.367188 4.476562 40.378906 4.445312 40.34375 4.5 C 40.242188 4.5625 40.117188 4.546875 40.003906 4.5625 C 39.894531 4.574219 39.785156 4.589844 39.679688 4.625 C 39.601562 4.671875 39.539062 4.742188 39.484375 4.820312 C 39.367188 4.933594 39.21875 4.871094 39.246094 4.691406 C 39.269531 4.542969 39.292969 4.390625 39.3125 4.242188 C 39.316406 4.132812 39.265625 4.078125 39.367188 4.085938 C 39.382812 4.023438 39.328125 4.039062 39.304688 4.070312 C 39.289062 4.089844 39.265625 4.074219 39.273438 4.050781 Z M 39.273438 4.050781 "
       fill-opacity="1"
       fill-rule="nonzero"
       id="path49"
       style="fill:#909497;fill-opacity:1" />
  </g>
  <path
     d="M 38.105469 5.515625 C 38.15625 5.476562 38.234375 5.453125 38.296875 5.433594 C 38.542969 5.363281 38.789062 5.292969 39.035156 5.21875 C 39.292969 5.140625 39.546875 5.050781 39.800781 4.953125 C 39.875 4.933594 40.011719 4.863281 40.0625 4.964844 C 40.066406 4.976562 40.0625 4.96875 40.058594 4.980469 C 40.050781 5.085938 39.90625 5.085938 39.835938 5.105469 C 39.574219 5.160156 39.316406 5.234375 39.058594 5.3125 C 38.8125 5.382812 38.566406 5.449219 38.328125 5.539062 C 38.253906 5.566406 38.183594 5.59375 38.105469 5.59375 C 38.054688 5.59375 38.066406 5.546875 38.105469 5.515625 Z M 38.105469 5.515625 "
     fill-opacity="1"
     fill-rule="nonzero"
     id="path50"
     style="fill:#909497;fill-opacity:1" />
  <path
     d="M 38.386719 5.824219 C 38.363281 5.859375 38.40625 5.875 38.429688 5.886719 C 38.457031 6.007812 38.523438 6.105469 38.605469 6.195312 C 38.699219 6.296875 38.691406 6.199219 38.644531 6.21875 L 38.527344 6.320312 L 38.535156 6.332031 C 38.519531 6.238281 38.46875 6.152344 38.441406 6.058594 C 38.410156 5.855469 38.582031 5.777344 38.726562 5.714844 C 38.960938 5.613281 39.195312 5.503906 39.410156 5.363281 C 39.582031 5.207031 39.898438 5.105469 39.832031 5.488281 C 39.742188 5.640625 39.667969 5.796875 39.636719 5.976562 C 39.597656 6.203125 39.566406 6.144531 39.402344 6.132812 C 39.394531 6.132812 39.394531 6.121094 39.402344 6.121094 C 39.417969 6.121094 39.4375 6.136719 39.441406 6.125 C 39.449219 6.089844 39.3125 5.960938 39.414062 5.910156 C 39.464844 5.746094 39.527344 5.582031 39.546875 5.410156 C 39.542969 5.695312 39.890625 5.421875 39.484375 5.539062 C 39.242188 5.621094 39.015625 5.734375 38.789062 5.851562 C 38.730469 5.890625 38.628906 5.9375 38.601562 6.015625 C 38.613281 6.109375 38.671875 6.1875 38.71875 6.265625 C 38.804688 6.492188 38.503906 6.5 38.480469 6.304688 C 38.402344 6.1875 38.320312 6.074219 38.25 5.949219 C 38.226562 5.855469 38.261719 5.800781 38.328125 5.746094 C 38.382812 5.703125 38.429688 5.769531 38.386719 5.824219 Z M 38.386719 5.824219 "
     fill-opacity="1"
     fill-rule="nonzero"
     id="path51"
     style="fill:#909497;fill-opacity:1" />
  <path
     d="M 38.359375 6.011719 C 38.40625 5.90625 38.605469 5.925781 38.699219 5.917969 C 38.867188 5.917969 39.035156 5.804688 39.199219 5.851562 C 39.386719 5.988281 39.164062 6.101562 39.0625 6.1875 C 38.867188 6.324219 39 6.546875 38.972656 6.238281 C 38.773438 6.160156 39.066406 6.183594 39.121094 6.1875 C 39.214844 6.203125 39.179688 6.222656 39.230469 6.152344 C 39.234375 6.144531 39.246094 6.152344 39.238281 6.160156 C 39.1875 6.238281 39.207031 6.191406 39.183594 6.308594 C 39.070312 6.472656 38.90625 6.570312 38.726562 6.464844 C 38.660156 6.121094 38.78125 6.261719 38.992188 6.082031 C 39.089844 6.003906 39.136719 5.902344 39.191406 6.0625 C 39.046875 6.109375 38.875 6.050781 38.730469 6.121094 C 38.621094 6.152344 38.480469 6.238281 38.375 6.179688 C 38.28125 6.125 38.3125 6.117188 38.359375 6.011719 Z M 38.359375 6.011719 "
     fill-opacity="1"
     fill-rule="nonzero"
     id="path52"
     style="fill:#909497;fill-opacity:1" />
  <path
     d="M 39.121094 5.007812 C 39.179688 5.03125 39.132812 5.140625 39.128906 5.191406 C 39.089844 5.464844 39.085938 5.742188 39.09375 6.015625 C 39.101562 6.277344 39.15625 6.53125 39.179688 6.792969 C 39.210938 7.03125 39.132812 7.023438 39 7.140625 C 38.996094 7.148438 38.984375 7.136719 38.992188 7.132812 C 39.054688 7.078125 38.945312 6.894531 38.992188 6.800781 C 38.996094 6.539062 39 6.28125 38.988281 6.019531 C 38.976562 5.742188 38.960938 5.460938 38.9375 5.183594 C 38.933594 5.113281 38.902344 4.972656 38.980469 4.9375 C 39.082031 4.894531 39.019531 4.964844 39.121094 5.007812 Z M 39.121094 5.007812 "
     fill-opacity="1"
     fill-rule="nonzero"
     id="path53"
     style="fill:#909497;fill-opacity:1" />
  <path
     d="M 37.726562 6.75 C 37.820312 6.695312 37.929688 6.683594 38.035156 6.675781 C 38.414062 6.652344 38.792969 6.585938 39.167969 6.515625 C 39.574219 6.441406 39.96875 6.308594 40.367188 6.191406 C 40.507812 6.15625 40.679688 6.097656 40.777344 6.246094 C 40.800781 6.328125 40.773438 6.316406 40.824219 6.324219 C 40.832031 6.324219 40.832031 6.335938 40.820312 6.335938 C 40.769531 6.328125 40.800781 6.324219 40.753906 6.394531 C 40.648438 6.492188 40.519531 6.433594 40.390625 6.425781 C 39.980469 6.402344 39.578125 6.46875 39.175781 6.574219 C 38.804688 6.667969 38.433594 6.769531 38.058594 6.851562 C 38.046875 6.851562 37.820312 6.902344 37.882812 6.890625 C 38.019531 6.859375 37.601562 6.824219 37.726562 6.75 Z M 37.726562 6.75 "
     fill-opacity="1"
     fill-rule="nonzero"
     id="path54"
     style="fill:#909497;fill-opacity:1" />
  <path
     d="M 37.113281 4.296875 C 37.152344 4.152344 37.167969 4.3125 37.183594 4.375 C 37.214844 4.554688 37.335938 4.652344 37.441406 4.785156 C 37.449219 4.796875 37.433594 4.808594 37.425781 4.796875 C 37.316406 4.664062 37.21875 4.558594 37.046875 4.539062 C 36.910156 4.5 36.792969 4.429688 36.84375 4.257812 C 36.898438 4.058594 37.050781 4.492188 37.113281 4.296875 Z M 37.113281 4.296875 "
     fill-opacity="1"
     fill-rule="nonzero"
     id="path55"
     style="fill:#909497;fill-opacity:1" />
  <path
     d="M 36.617188 5.03125 C 36.691406 5.0625 36.769531 5.066406 36.847656 5.082031 C 37.019531 5.117188 37.1875 5.15625 37.347656 5.214844 C 37.53125 5.292969 37.550781 5.453125 37.421875 5.601562 C 37.347656 5.671875 37.226562 5.726562 37.203125 5.824219 C 37.269531 5.691406 37.179688 5.714844 37.378906 5.789062 C 37.542969 5.835938 37.648438 5.9375 37.679688 6.125 C 37.691406 6.222656 37.609375 6.320312 37.621094 6.40625 C 37.625 6.28125 37.65625 6.359375 37.710938 6.4375 C 37.796875 6.6875 37.589844 6.785156 37.414062 6.859375 C 37.238281 6.925781 37.066406 7.007812 36.898438 7.097656 C 36.808594 7.179688 36.957031 7.175781 36.941406 6.992188 C 36.929688 6.859375 36.761719 6.890625 36.960938 6.914062 C 37.253906 6.917969 37.550781 6.9375 37.84375 6.964844 C 38.179688 7.003906 38.5 7.097656 38.824219 7.1875 C 39.097656 7.285156 39.371094 7.320312 39.65625 7.308594 C 40.039062 7.269531 40.417969 7.199219 40.789062 7.097656 C 41.023438 7.082031 41.203125 7.042969 41.402344 6.917969 C 41.410156 6.914062 41.417969 6.925781 41.410156 6.929688 C 41.210938 7.050781 41.050781 7.210938 40.855469 7.332031 C 40.472656 7.480469 40.171875 7.710938 39.765625 7.757812 C 39.433594 7.789062 39.03125 7.664062 38.730469 7.496094 C 38.4375 7.359375 38.132812 7.167969 37.820312 7.117188 C 37.539062 7.066406 37.25 7.125 36.96875 7.167969 C 36.910156 7.175781 36.851562 7.21875 36.796875 7.195312 C 36.582031 7.101562 36.628906 6.902344 36.816406 6.875 C 36.988281 6.816406 37.160156 6.769531 37.308594 6.65625 C 37.390625 6.585938 37.390625 6.488281 37.429688 6.59375 C 37.425781 6.574219 37.324219 6.449219 37.351562 6.367188 C 37.371094 6.292969 37.414062 6.226562 37.421875 6.148438 C 37.441406 6.070312 37.371094 6.03125 37.3125 6.003906 C 37.175781 5.953125 36.957031 5.929688 37.03125 5.710938 C 37.113281 5.625 37.21875 5.574219 37.289062 5.480469 C 37.328125 5.425781 37.351562 5.425781 37.28125 5.359375 C 37.152344 5.25 37 5.191406 36.839844 5.171875 C 36.761719 5.167969 36.679688 5.160156 36.601562 5.175781 C 36.511719 5.195312 36.53125 5 36.617188 5.03125 Z M 36.617188 5.03125 "
     fill-opacity="1"
     fill-rule="nonzero"
     id="path56"
     style="fill:#909497;fill-opacity:1" />
  <path
     d="M 36.9375 9.652344 C 37.140625 9.691406 37.339844 9.636719 37.53125 9.582031 C 37.792969 9.511719 38.003906 9.363281 38.195312 9.175781 C 38.273438 9.128906 38.214844 8.964844 38.207031 9.078125 C 38.191406 9.167969 38.148438 9.238281 38.152344 9.339844 C 38.160156 9.496094 38.226562 9.554688 38.375 9.558594 C 38.648438 9.472656 38.804688 9.207031 38.941406 8.972656 C 38.996094 8.820312 38.949219 8.503906 39.1875 9.003906 C 39.214844 9.066406 39.085938 9.097656 39.042969 9.148438 C 38.964844 9.296875 38.691406 9.59375 38.828125 9.765625 C 38.929688 9.679688 38.765625 9.695312 38.773438 9.652344 C 38.796875 9.5625 39.1875 9.367188 39.257812 9.320312 C 39.550781 9.121094 39.859375 8.933594 40.210938 8.867188 C 40.386719 8.84375 40.589844 8.867188 40.609375 9.074219 C 40.609375 9.09375 40.601562 9.085938 40.585938 9.082031 C 40.484375 9.070312 40.367188 9.089844 40.257812 9.105469 C 39.9375 9.175781 39.636719 9.273438 39.375 9.480469 C 39.199219 9.625 38.792969 10.097656 38.621094 9.769531 C 38.710938 9.535156 38.8125 9.304688 38.894531 9.066406 C 38.914062 9 38.871094 8.84375 38.941406 8.863281 C 39.402344 9.003906 39.171875 8.972656 39.046875 9.054688 C 38.832031 9.261719 38.632812 9.484375 38.410156 9.683594 C 38.132812 9.808594 37.964844 9.613281 37.898438 9.347656 C 37.890625 9.113281 37.945312 8.820312 38.238281 8.828125 C 38.476562 8.914062 38.457031 9.109375 38.324219 9.292969 C 38.132812 9.515625 37.847656 9.613281 37.589844 9.746094 C 37.402344 9.835938 37.203125 9.910156 37.03125 10.035156 C 36.808594 10.199219 36.664062 9.597656 36.9375 9.652344 Z M 36.9375 9.652344 "
     fill-opacity="1"
     fill-rule="nonzero"
     id="path57"
     style="fill:#909497;fill-opacity:1" />
  <path
     d="M 38.019531 10.582031 C 37.820312 10.679688 37.628906 10.792969 37.449219 10.925781 C 37.300781 11.054688 37.128906 11.183594 37.050781 11.367188 C 36.574219 11.335938 37.1875 10.988281 37.320312 10.875 C 37.523438 10.691406 37.757812 10.292969 37.894531 10.765625 C 37.785156 11.113281 37.644531 11.449219 37.550781 11.800781 C 37.476562 11.992188 37.550781 12.183594 37.566406 12.199219 C 38 11.996094 38.355469 11.59375 38.726562 11.285156 C 39.105469 11.03125 39.414062 10.714844 39.730469 10.390625 C 39.777344 10.375 39.84375 10.304688 39.878906 10.34375 C 40.28125 10.761719 39.675781 10.96875 39.398438 11.164062 C 39.105469 11.367188 38.785156 11.582031 38.414062 11.535156 C 38.125 11.3125 38.40625 10.917969 38.550781 10.683594 C 38.742188 10.402344 38.933594 10.082031 39.285156 10.015625 C 39.789062 10.242188 39.398438 10.746094 39.21875 11.074219 C 39.070312 11.378906 38.804688 11.777344 39 12.117188 C 39.316406 12.378906 39.757812 12.269531 40.117188 12.1875 C 40.414062 12.070312 40.699219 11.917969 40.96875 11.742188 C 40.984375 11.734375 40.988281 11.734375 40.992188 11.753906 C 41.070312 12.300781 40.667969 12.457031 40.1875 12.550781 C 39.660156 12.632812 38.980469 12.730469 38.644531 12.226562 C 38.558594 11.765625 38.789062 11.375 38.964844 10.957031 C 39.03125 10.78125 39.046875 10.765625 39.078125 10.589844 C 39.089844 10.53125 39.03125 10.421875 39.09375 10.410156 C 39.140625 10.402344 39.128906 10.585938 39.226562 10.464844 C 39.261719 10.265625 38.597656 10.585938 38.632812 10.734375 C 38.5 10.933594 38.308594 11.21875 38.429688 11.460938 C 38.726562 11.570312 39.042969 11.140625 39.261719 11 C 39.890625 10.398438 39.367188 10.484375 39.785156 10.808594 C 39.8125 10.828125 39.839844 10.769531 39.867188 10.746094 C 39.441406 10.644531 39.050781 11.082031 38.742188 11.304688 C 38.355469 11.628906 37.96875 11.957031 37.601562 12.300781 C 37.1875 12.550781 37.308594 11.972656 37.390625 11.757812 C 37.484375 11.453125 37.621094 11.125 37.589844 10.804688 C 37.75 10.957031 37.734375 10.585938 37.367188 10.925781 C 37.273438 11.015625 37.253906 11.03125 37.179688 11.136719 C 37.140625 11.1875 37.125 11.355469 37.089844 11.304688 C 36.976562 11.125 37.324219 11.207031 36.910156 11.183594 C 37.097656 11.132812 37.257812 10.996094 37.421875 10.886719 C 37.601562 10.753906 37.78125 10.605469 37.992188 10.515625 C 38.039062 10.496094 38.066406 10.558594 38.019531 10.582031 Z M 38.019531 10.582031 "
     fill-opacity="1"
     fill-rule="nonzero"
     id="path58"
     style="fill:#909497;fill-opacity:1" />
</svg>
